# xmcd
#
# Track frame offsets:
#	150
#	17087
#	32333
#	64220
#	79331
#	93846
#	115361
#	129704
#	140936
#	174521
#	190334
#	201788
#	217305
#	240426
#	258744
#	279815
#	296812
#	310280
#	324041
#
# Disc length: 4395 seconds
# Revision: 1
# Processed by: cddbd v1.5.2PL0 Copyright (c) Steve Scherf et al.
# Submitted via: dBpowerAMP V12.0
#
DISCID=20112913
DTITLE=Various Artist - Street Sounds from Sugar Hill
DYEAR=2003
DGENRE=Country
TTITLE0=Sonny Landreth - All About You
TTITLE1=Jerry Douglas - Patrick Meets The Brickbats
TTITLE2=Railroad Earth - Like A Buddha
TTITLE3=Mike Marshall and Chris Thile - Harvest Time
TTITLE4=The Gourds - Bottle and A Dime
TTITLE5=James McMurtry - Valley Road
TTITLE6=Greg Trooper - Lucky That Way
TTITLE7=Sean Watkins - On Ice
TTITLE8=Acoustic Syndicate - Terra Firma
TTITLE9=Nickel Creek - Young
TTITLE10=The Gibson Brothers - The Open Road
TTITLE11=Bryan Sutton - Back Up And Push
TTITLE12=Dolly Parton - I'm Gone
TTITLE13=Ronnie Bowman - Rise Above
TTITLE14=Tim O'Brien - When You Come Back Down
TTITLE15=Guy Clark - Mud
TTITLE16=Reckless Kelly - Let's Just Fall
TTITLE17=Scott Miller - Daddy Raised A Boy
TTITLE18=Willie Nelson - Three Days
EXTD=
EXTT0=
EXTT1=
EXTT2=
EXTT3=
EXTT4=
EXTT5=
EXTT6=
EXTT7=
EXTT8=
EXTT9=
EXTT10=
EXTT11=
EXTT12=
EXTT13=
EXTT14=
EXTT15=
EXTT16=
EXTT17=
EXTT18=
PLAYORDER=
